<svg width="33" height="22" viewBox="0 0 33 22" fill="none" xmlns="http://www.w3.org/2000/svg">
<path fill-rule="evenodd" clip-rule="evenodd" d="M0.444092 11.0896C0.444092 10.435 0.974716 9.90442 1.62927 9.90442L30.0747 9.90442C30.7293 9.90442 31.2599 10.435 31.2599 11.0896C31.2599 11.7442 30.7293 12.2748 30.0747 12.2748L1.62927 12.2748C0.974716 12.2748 0.444092 11.7442 0.444092 11.0896Z" fill="#605E5E"/>
<path fill-rule="evenodd" clip-rule="evenodd" d="M22.9956 0.697351C23.4984 0.278304 24.2457 0.34623 24.6648 0.849067L32.1447 9.82469C32.7552 10.5572 32.7552 11.6213 32.1447 12.3539L24.6648 21.3295C24.2457 21.8323 23.4984 21.9002 22.9956 21.4812C22.4927 21.0622 22.4248 20.3148 22.8438 19.812L30.113 11.0893L22.8438 2.36657C22.4248 1.86373 22.4927 1.1164 22.9956 0.697351Z" fill="#605E5E"/>
</svg>
