<svg width="22" height="22" viewBox="0 0 22 22" fill="none" xmlns="http://www.w3.org/2000/svg">
<path fill-rule="evenodd" clip-rule="evenodd" d="M11.2091 0C12.6305 0.0506994 14.1028 0.0506994 15.5243 0.101392C16.7934 0.152085 17.9611 0.354867 19.078 1.0139C20.4994 1.87572 21.3625 3.14309 21.6671 4.76533C21.8194 5.72853 21.8701 6.74243 21.9209 7.70564C21.9717 9.83483 21.9209 11.964 21.9209 14.0932C21.9209 15.2085 21.8701 16.3238 21.5148 17.3884C20.804 19.4669 19.3318 20.7342 17.1996 21.1398C16.235 21.3426 15.2197 21.3426 14.2551 21.3933C12.1229 21.444 10.0414 21.3933 7.90919 21.3933C6.79232 21.3933 5.67545 21.3426 4.60934 20.9877C2.52788 20.278 1.25871 18.8078 0.852569 16.6786C0.649504 15.7154 0.649504 14.7015 0.598736 13.7383C0.547966 11.6091 0.598736 9.47996 0.598736 7.35077C0.598736 6.23549 0.649504 5.1202 1.00487 4.05559C1.71561 1.9771 3.18786 0.709734 5.32007 0.304173C6.28466 0.101399 7.29999 0.101399 8.26457 0.0506994C9.22915 0 10.1937 0 11.2091 0ZM19.9919 10.4941C19.9412 10.4941 19.9919 10.4941 19.9919 10.4941C19.9412 9.63233 19.9412 8.82121 19.9412 7.95939C19.9412 7.14828 19.8904 6.33715 19.7889 5.52604C19.5858 3.70101 18.5197 2.48433 16.7428 2.12947C15.829 1.92669 14.8137 1.92669 13.8999 1.92669C12.0723 1.876 10.2954 1.876 8.4678 1.92669C7.55399 1.92669 6.64019 1.97738 5.77714 2.12947C4.25413 2.38294 3.18802 3.24476 2.73112 4.76561C2.57882 5.27256 2.52805 5.77951 2.47728 6.28646C2.42651 8.21287 2.42651 10.1393 2.42651 12.0657C2.42651 13.2824 2.47728 14.5497 2.57882 15.7664C2.73112 17.5914 3.84799 18.8588 5.67561 19.163C6.58941 19.3151 7.55399 19.3658 8.51857 19.3658C10.2954 19.4165 12.0723 19.3658 13.8999 19.3658C14.7122 19.3658 15.5244 19.3151 16.3367 19.2137C17.0982 19.163 17.8089 18.9095 18.4182 18.4026C19.4335 17.5914 19.7889 16.5268 19.8396 15.3102C19.9412 13.7893 19.9412 12.1671 19.9919 10.4941Z" fill="#081420"/>
<path fill-rule="evenodd" clip-rule="evenodd" d="M16.6923 10.6962C16.6923 13.7379 14.2554 16.1712 11.2094 16.1712C8.16339 16.1712 5.72656 13.7379 5.72656 10.6455C5.72656 7.65453 8.21415 5.22119 11.2602 5.22119C14.2554 5.22119 16.6923 7.65453 16.6923 10.6962ZM11.2088 14.2447C13.1379 14.2447 14.7625 12.6225 14.7625 10.6961C14.7625 8.7697 13.1379 7.14746 11.2088 7.14746C9.22885 7.14746 7.65506 8.7697 7.65506 10.6961C7.6043 12.6225 9.22885 14.2447 11.2088 14.2447Z" fill="#081420"/>
<path d="M18.1644 4.96758C18.1644 5.67731 17.6059 6.28566 16.8952 6.28566C16.1844 6.28566 15.5752 5.67731 15.626 4.96758C15.626 4.25785 16.1844 3.7002 16.8952 3.7002C17.6059 3.7002 18.1644 4.25784 18.1644 4.96758Z" fill="#081420"/>
</svg>
