<svg width="23" height="21" viewBox="0 0 23 21" fill="none" xmlns="http://www.w3.org/2000/svg">
<path fill-rule="evenodd" clip-rule="evenodd" d="M22.1906 12.4813V20.3605H17.5831V12.9989C17.5831 11.1585 16.9496 9.89327 15.2793 9.89327C14.0123 9.89327 13.2636 10.756 12.918 11.5611C12.8028 11.8487 12.7452 12.2513 12.7452 12.6538V20.3605H8.13771C8.13771 20.3605 8.19531 7.88035 8.13771 6.61509H12.7452V8.5705C12.7452 8.5705 12.7452 8.628 12.6876 8.628H12.7452V8.5705C13.3787 7.65031 14.4154 6.27002 16.892 6.27002C19.8868 6.27002 22.1906 8.28294 22.1906 12.4813ZM3.41399 0.000976562C1.85895 0.000976562 0.822266 1.03619 0.822266 2.35897C0.822266 3.68174 1.80136 4.71697 3.35639 4.71697H3.41399C5.02662 4.71697 6.00571 3.68175 6.00571 2.35897C5.94812 1.03619 4.96902 0.000976562 3.41399 0.000976562ZM1.05298 20.3601H5.6029V6.61475H1.05298V20.3601Z" fill="#081420"/>
</svg>
