<svg width="22" height="19" viewBox="0 0 22 19" fill="none" xmlns="http://www.w3.org/2000/svg">
<path fill-rule="evenodd" clip-rule="evenodd" d="M21.3683 2.82596C20.5639 3.1774 19.7595 3.42842 18.8545 3.52883C19.7595 2.97658 20.4633 2.1231 20.765 1.11901C19.9103 1.62106 18.9551 1.97249 17.9998 2.1733C17.1954 1.31982 16.039 0.767578 14.7821 0.767578C12.3689 0.767578 10.4081 2.72555 10.4081 5.13537C10.4081 5.48681 10.4584 5.83823 10.5087 6.13947C6.83852 5.93865 3.62085 4.23169 1.45898 1.57085C1.05677 2.22351 0.855668 2.97658 0.855668 3.77985C0.855668 5.28599 1.60981 6.64151 2.81644 7.44478C2.11257 7.44478 1.40871 7.24397 0.805391 6.89253V6.94273C0.805391 9.05133 2.31367 10.8587 4.32472 11.2603C3.97278 11.3607 3.57058 11.4109 3.16836 11.4109C2.86671 11.4109 2.61533 11.3607 2.36395 11.3105C2.91699 13.0677 4.52582 14.3228 6.48658 14.373C4.97831 15.5277 3.11809 16.2306 1.05677 16.2306C0.704841 16.2306 0.352911 16.2306 0.000976562 16.1804C1.96174 17.4355 4.22416 18.1383 6.73797 18.1383C14.8324 18.1383 19.2064 11.4611 19.2064 5.68762C19.2064 5.48681 19.2064 5.28599 19.2064 5.13537C20.0611 4.48272 20.8153 3.67944 21.3683 2.82596Z" fill="#6C5FBC"/>
</svg>
